<?xml version="1.0" encoding="UTF-8" standalone="no"?>
<!-- Created with Inkscape (http://www.inkscape.org/) -->

<svg
   xmlns:dc="http://purl.org/dc/elements/1.1/"
   xmlns:cc="http://creativecommons.org/ns#"
   xmlns:rdf="http://www.w3.org/1999/02/22-rdf-syntax-ns#"
   xmlns:svg="http://www.w3.org/2000/svg"
   xmlns="http://www.w3.org/2000/svg"
   xmlns:sodipodi="http://sodipodi.sourceforge.net/DTD/sodipodi-0.dtd"
   xmlns:inkscape="http://www.inkscape.org/namespaces/inkscape"
   width="779.54877mm"
   height="260.26193mm"
   viewBox="0 0 2762.1807 922.18795"
   id="svg12809"
   version="1.1"
   inkscape:version="0.91 r13725"
   sodipodi:docname="log-ponto-de-acesso-editavel.svg">
  <defs
     id="defs12811" />
  <sodipodi:namedview
     id="base"
     pagecolor="#ffffff"
     bordercolor="#666666"
     borderopacity="1.0"
     inkscape:pageopacity="0.0"
     inkscape:pageshadow="2"
     inkscape:zoom="0.04375"
     inkscape:cx="-425.17796"
     inkscape:cy="-327.80097"
     inkscape:document-units="px"
     inkscape:current-layer="g12999"
     showgrid="false"
     fit-margin-top="0"
     fit-margin-left="0"
     fit-margin-right="0"
     fit-margin-bottom="0"
     inkscape:window-width="856"
     inkscape:window-height="556"
     inkscape:window-x="1761"
     inkscape:window-y="289"
     inkscape:window-maximized="0" />
  <metadata
     id="metadata12814">
    <rdf:RDF>
      <cc:Work
         rdf:about="">
        <dc:format>image/svg+xml</dc:format>
        <dc:type
           rdf:resource="http://purl.org/dc/dcmitype/StillImage" />
        <dc:title />
      </cc:Work>
    </rdf:RDF>
  </metadata>
  <g
     inkscape:label="Camada 1"
     inkscape:groupmode="layer"
     id="layer1"
     transform="translate(1556.4465,-2840.9337)">
    <g
       id="g8105"
       transform="translate(3864.5452,-1508.9466)">
      <g
         id="g12999">
        <path
           style="fill:#004840;fill-opacity:1;stroke:none"
           d="m -5082.6436,4349.8803 c -182.6459,0 -330.7352,147.6405 -330.7352,329.8037 0,3.7552 0.097,7.4992 0.2218,11.2241 -0.2365,2.2176 -0.2984,4.5752 -0.133,7.054 7.0982,106.4741 66.9456,225.0977 109.5352,309.263 42.5896,84.1653 71.9587,123.7318 71.9587,123.7318 l 297.9058,0 c 0,0 29.4135,-39.5665 72.0032,-123.7318 34.8351,-68.8409 81.1875,-160.7271 100.7955,-250.1699 4.2186,-17.5057 7.0461,-35.5673 8.3405,-54.0356 0,-0.015 0,-0.03 0,-0.044 0.1364,-1.6694 0.244,-3.3495 0.3549,-5.0132 0.029,-0.4349 0.028,-0.8598 0.044,-1.2866 0.011,-0.2356 0.033,-0.474 0.044,-0.7098 0,-0.1639 0,-0.3253 0,-0.488 0.247,-5.2293 0.3549,-10.5034 0.3549,-15.7936 0,-182.1633 -148.0451,-329.8037 -330.691,-329.8037 z"
           id="path4130-2-1"
           inkscape:connector-curvature="0" />
        <path
           style="fill:#00796b;fill-opacity:1;stroke:#ffffff"
           d="m -5210.4335,5051.8469 -209.3438,207.5625 327.2188,0 19.75,0 327.25,0 -209.3438,-207.5625 z"
           id="path4043-4-1"
           inkscape:connector-curvature="0"
           sodipodi:nodetypes="ccccccc" />
        <g
           id="g8091-9-2"
           transform="matrix(0.95784318,0,0,0.95784318,-190.64539,2954.2957)">
          <g
             transform="translate(-4476.9933,2695.087)"
             id="g4398-8-8">
            <path
               id="path3845-4-7"
               d="m -534.90156,-1053.707 c 0,52.7065 -42.72705,95.43356 -95.43357,95.43356 -52.7065,0 -95.43355,-42.72706 -95.43355,-95.43356 0,-52.7065 42.72705,-95.4336 95.43355,-95.4336 52.70652,0 95.43357,42.7271 95.43357,95.4336 z"
               style="fill:#ffffff;stroke-width:20;stroke-linecap:round;stroke-linejoin:round;stroke-miterlimit:4"
               inkscape:connector-curvature="0" />
            <path
               inkscape:connector-curvature="0"
               id="path3951-2-0"
               d="m -632.19586,-811.22668 a 18.140903,18.140903 0 0 0 -17.62538,18.62918 l 2.68662,211.8884 a 18.143578,18.143578 0 1 0 36.28408,-0.47237 l -2.68662,-211.8884 a 18.140903,18.140903 0 0 0 -18.6587,-18.15681 z"
               style="color:#000000;font-style:normal;font-variant:normal;font-weight:normal;font-stretch:normal;font-size:medium;line-height:normal;font-family:Sans;-inkscape-font-specification:Sans;text-indent:0;text-align:start;text-decoration:none;text-decoration-line:none;letter-spacing:normal;word-spacing:normal;text-transform:none;direction:ltr;block-progression:tb;writing-mode:lr-tb;baseline-shift:baseline;text-anchor:start;display:inline;overflow:visible;visibility:visible;fill:#ffffff;fill-opacity:1;stroke:none;stroke-width:38.40000153;marker:none;enable-background:accumulate" />
            <path
               inkscape:connector-curvature="0"
               id="path3951-0-5-2"
               d="m -736.05867,-757.78958 a 18.140903,18.140903 0 0 0 -17.68443,18.57012 l 2.68662,264.8236 a 18.143055,18.143055 0 1 0 36.28408,-0.3838 l -2.68662,-264.79408 a 18.140903,18.140903 0 0 0 -18.59965,-18.21584 z"
               style="color:#000000;font-style:normal;font-variant:normal;font-weight:normal;font-stretch:normal;font-size:medium;line-height:normal;font-family:Sans;-inkscape-font-specification:Sans;text-indent:0;text-align:start;text-decoration:none;text-decoration-line:none;letter-spacing:normal;word-spacing:normal;text-transform:none;direction:ltr;block-progression:tb;writing-mode:lr-tb;baseline-shift:baseline;text-anchor:start;display:inline;overflow:visible;visibility:visible;fill:#ffffff;fill-opacity:1;stroke:none;stroke-width:38.40000153;marker:none;enable-background:accumulate" />
            <path
               inkscape:connector-curvature="0"
               id="path3951-0-2-7-5"
               d="m -528.21495,-757.78958 a 18.140903,18.140903 0 0 0 -17.68443,18.57012 l 2.68662,264.8236 a 18.143055,18.143055 0 1 0 36.28408,-0.3838 l -2.68662,-264.79408 a 18.140903,18.140903 0 0 0 -18.59965,-18.21584 z"
               style="color:#000000;font-style:normal;font-variant:normal;font-weight:normal;font-stretch:normal;font-size:medium;line-height:normal;font-family:Sans;-inkscape-font-specification:Sans;text-indent:0;text-align:start;text-decoration:none;text-decoration-line:none;letter-spacing:normal;word-spacing:normal;text-transform:none;direction:ltr;block-progression:tb;writing-mode:lr-tb;baseline-shift:baseline;text-anchor:start;display:inline;overflow:visible;visibility:visible;fill:#ffffff;fill-opacity:1;stroke:none;stroke-width:38.40000153;marker:none;enable-background:accumulate" />
            <path
               inkscape:connector-curvature="0"
               id="path3951-8-6-5"
               d="m -570.52178,-582.98239 -116.174,0.61999 a 18.140903,18.140903 0 1 0 0.17714,36.25455 l 116.20353,-0.61998 a 18.140903,18.140903 0 1 0 -0.20667,-36.25456 z"
               style="color:#000000;font-style:normal;font-variant:normal;font-weight:normal;font-stretch:normal;font-size:medium;line-height:normal;font-family:Sans;-inkscape-font-specification:Sans;text-indent:0;text-align:start;text-decoration:none;text-decoration-line:none;letter-spacing:normal;word-spacing:normal;text-transform:none;direction:ltr;block-progression:tb;writing-mode:lr-tb;baseline-shift:baseline;text-anchor:start;display:inline;overflow:visible;visibility:visible;fill:#ffffff;fill-opacity:1;stroke:none;stroke-width:38.40000153;marker:none;enable-background:accumulate" />
          </g>
          <g
             transform="translate(-4357.8651,1673.5303)"
             style="fill:#ffffff"
             id="g4370-53-7">
            <path
               sodipodi:nodetypes="csccsssccsc"
               inkscape:connector-curvature="0"
               id="path3951-0-7-74-3"
               d="m -853.06948,41.825482 c -3.93326,-2.65692 -8.9354,-3.679359 -13.59576,-2.778971 -4.66036,0.900389 -8.92166,3.712541 -11.58214,7.64338 L -985.76794,200.80624 c -2.70877,3.89781 -3.79749,8.88594 -2.95922,13.55794 0.83827,4.672 3.59324,8.97047 7.48814,11.6834 3.89489,2.71293 8.88189,3.807 13.55478,2.97373 4.67288,-0.83328 8.9743,-3.58368 11.6914,-7.47568 L -848.48937,67.453342 c 2.82524,-3.928898 3.98102,-9.018769 3.12966,-13.782524 -0.85137,-4.763756 -3.69858,-9.138227 -7.70977,-11.845336 z"
               style="color:#000000;font-style:normal;font-variant:normal;font-weight:normal;font-stretch:normal;font-size:medium;line-height:normal;font-family:Sans;-inkscape-font-specification:Sans;text-indent:0;text-align:start;text-decoration:none;text-decoration-line:none;letter-spacing:normal;word-spacing:normal;text-transform:none;direction:ltr;block-progression:tb;writing-mode:lr-tb;baseline-shift:baseline;text-anchor:start;display:inline;overflow:visible;visibility:visible;fill:#ffffff;fill-opacity:1;stroke:none;stroke-width:38.40000153;marker:none;enable-background:accumulate" />
            <path
               sodipodi:nodetypes="csccsssccsc"
               inkscape:connector-curvature="0"
               id="path3951-0-7-8-4-3"
               d="m -898.21009,344.05252 c 4.26757,-2.07783 7.65412,-5.89859 9.20454,-10.38478 1.55041,-4.48618 1.24568,-9.58266 -0.8283,-13.85212 l -64.70841,-116.24508 c -2.02123,-4.29477 -5.79671,-7.73169 -10.26192,-9.34173 -4.46519,-1.61004 -9.56527,-1.3734 -13.86218,0.64322 -4.29689,2.01659 -7.73785,5.78835 -9.35267,10.25181 -1.6148,4.4635 -1.3836,9.56384 0.62843,13.8629 l 64.69608,116.21835 c 1.98989,4.41119 5.81997,7.95704 10.37117,9.60162 4.55123,1.64457 9.76324,1.36606 14.11326,-0.75419 z"
               style="color:#000000;font-style:normal;font-variant:normal;font-weight:normal;font-stretch:normal;font-size:medium;line-height:normal;font-family:Sans;-inkscape-font-specification:Sans;text-indent:0;text-align:start;text-decoration:none;text-decoration-line:none;letter-spacing:normal;word-spacing:normal;text-transform:none;direction:ltr;block-progression:tb;writing-mode:lr-tb;baseline-shift:baseline;text-anchor:start;display:inline;overflow:visible;visibility:visible;fill:#ffffff;fill-opacity:1;stroke:none;stroke-width:38.40000153;marker:none;enable-background:accumulate" />
          </g>
          <g
             style="fill:#ffffff"
             id="g4370-5-2-9"
             transform="matrix(-1,0,0,1,-5856.7974,1674.5404)">
            <path
               sodipodi:nodetypes="csccsssccsc"
               inkscape:connector-curvature="0"
               id="path3951-0-7-7-4-1"
               d="m -853.06948,41.825482 c -3.93326,-2.65692 -8.9354,-3.679359 -13.59576,-2.778971 -4.66036,0.900389 -8.92166,3.712541 -11.58214,7.64338 L -985.76794,200.80624 c -2.70877,3.89781 -3.79749,8.88594 -2.95922,13.55794 0.83827,4.672 3.59324,8.97047 7.48814,11.6834 3.89489,2.71293 8.88189,3.807 13.55478,2.97373 4.67288,-0.83328 8.9743,-3.58368 11.6914,-7.47568 L -848.48937,67.453342 c 2.82524,-3.928898 3.98102,-9.018769 3.12966,-13.782524 -0.85137,-4.763756 -3.69858,-9.138227 -7.70977,-11.845336 z"
               style="color:#000000;font-style:normal;font-variant:normal;font-weight:normal;font-stretch:normal;font-size:medium;line-height:normal;font-family:Sans;-inkscape-font-specification:Sans;text-indent:0;text-align:start;text-decoration:none;text-decoration-line:none;letter-spacing:normal;word-spacing:normal;text-transform:none;direction:ltr;block-progression:tb;writing-mode:lr-tb;baseline-shift:baseline;text-anchor:start;display:inline;overflow:visible;visibility:visible;fill:#ffffff;fill-opacity:1;stroke:none;stroke-width:38.40000153;marker:none;enable-background:accumulate" />
            <path
               sodipodi:nodetypes="csccsssccsc"
               inkscape:connector-curvature="0"
               id="path3951-0-7-8-0-3-9"
               d="m -898.21009,344.05252 c 4.26757,-2.07783 7.65412,-5.89859 9.20454,-10.38478 1.55041,-4.48618 1.24568,-9.58266 -0.8283,-13.85212 l -64.70841,-116.24508 c -2.02123,-4.29477 -5.79671,-7.73169 -10.26192,-9.34173 -4.46519,-1.61004 -9.56527,-1.3734 -13.86218,0.64322 -4.29689,2.01659 -7.73785,5.78835 -9.35267,10.25181 -1.6148,4.4635 -1.3836,9.56384 0.62843,13.8629 l 64.69608,116.21835 c 1.98989,4.41119 5.81997,7.95704 10.37117,9.60162 4.55123,1.64457 9.76324,1.36606 14.11326,-0.75419 z"
               style="color:#000000;font-style:normal;font-variant:normal;font-weight:normal;font-stretch:normal;font-size:medium;line-height:normal;font-family:Sans;-inkscape-font-specification:Sans;text-indent:0;text-align:start;text-decoration:none;text-decoration-line:none;letter-spacing:normal;word-spacing:normal;text-transform:none;direction:ltr;block-progression:tb;writing-mode:lr-tb;baseline-shift:baseline;text-anchor:start;display:inline;overflow:visible;visibility:visible;fill:#ffffff;fill-opacity:1;stroke:none;stroke-width:38.40000153;marker:none;enable-background:accumulate" />
          </g>
        </g>
        <text
           xml:space="preserve"
           style="font-style:normal;font-weight:normal;font-size:531.69726563px;line-height:125%;font-family:Sans;letter-spacing:0px;word-spacing:0px;fill:#082e6a;fill-opacity:1;stroke:none"
           x="-4682.3008"
           y="4705.8271"
           id="text4431-7-2"
           sodipodi:linespacing="125%"><tspan
             sodipodi:role="line"
             x="-4682.3008"
             y="4705.8271"
             style="font-style:normal;font-variant:normal;font-weight:bold;font-stretch:normal;font-family:Calibri;-inkscape-font-specification:'Calibri Bold';fill:#082e6a;fill-opacity:1"
             id="tspan4435-8-7">PONTO</tspan></text>
        <text
           xml:space="preserve"
           style="font-style:normal;font-weight:normal;font-size:329.76766968px;line-height:125%;font-family:Sans;letter-spacing:0px;word-spacing:0px;fill:#082e6a;fill-opacity:1;stroke:none"
           x="-3013.0537"
           y="4767.3281"
           id="text4431-4-5-9"
           sodipodi:linespacing="125%"><tspan
             sodipodi:role="line"
             x="-3013.0537"
             y="4767.3281"
             style="font-style:normal;font-variant:normal;font-weight:bold;font-stretch:normal;font-family:Calibri;-inkscape-font-specification:'Calibri Bold';fill:#082e6a;fill-opacity:1"
             id="tspan4435-1-0-4">DE</tspan></text>
        <text
           xml:space="preserve"
           style="font-style:normal;font-weight:normal;font-size:624.2467041px;line-height:125%;font-family:Sans;letter-spacing:0px;word-spacing:0px;fill:#082e6a;fill-opacity:1;stroke:none"
           x="-4649.7896"
           y="5265.0576"
           id="text4431-5-0-6"
           sodipodi:linespacing="125%"><tspan
             sodipodi:role="line"
             x="-4649.7896"
             y="5265.0576"
             style="font-style:normal;font-variant:normal;font-weight:bold;font-stretch:normal;font-family:Calibri;-inkscape-font-specification:'Calibri Bold';fill:#082e6a;fill-opacity:1"
             id="tspan4435-17-1-9">ACESSO</tspan></text>
        <text
           xml:space="preserve"
           style="font-style:normal;font-weight:normal;font-size:367.6723938px;line-height:125%;font-family:sans-serif;letter-spacing:0px;word-spacing:0px;fill:#000000;fill-opacity:1;stroke:none;stroke-width:1px;stroke-linecap:butt;stroke-linejoin:miter;stroke-opacity:1"
           x="-5039.9399"
           y="4091.3684"
           id="text8088"
           sodipodi:linespacing="125%"><tspan
             sodipodi:role="line"
             id="tspan8090"
             x="-5039.9399"
             y="4091.3684">fonte Calibri</tspan></text>
      </g>
    </g>
  </g>
</svg>
