<?xml version="1.0" encoding="UTF-8" standalone="no"?>
<!-- Created with Inkscape (http://www.inkscape.org/) -->

<svg
   xmlns:dc="http://purl.org/dc/elements/1.1/"
   xmlns:cc="http://creativecommons.org/ns#"
   xmlns:rdf="http://www.w3.org/1999/02/22-rdf-syntax-ns#"
   xmlns:svg="http://www.w3.org/2000/svg"
   xmlns="http://www.w3.org/2000/svg"
   xmlns:sodipodi="http://sodipodi.sourceforge.net/DTD/sodipodi-0.dtd"
   xmlns:inkscape="http://www.inkscape.org/namespaces/inkscape"
   width="153.75877mm"
   height="51.356899mm"
   viewBox="0 0 544.81456 181.97326"
   id="svg8171"
   version="1.1"
   inkscape:version="0.91 r13725"
   sodipodi:docname="logo-ponto-de-acesso-preto.svg">
  <defs
     id="defs8173" />
  <sodipodi:namedview
     id="base"
     pagecolor="#ffffff"
     bordercolor="#666666"
     borderopacity="1.0"
     inkscape:pageopacity="0.0"
     inkscape:pageshadow="2"
     inkscape:zoom="0.35"
     inkscape:cx="296.97497"
     inkscape:cy="122.27205"
     inkscape:document-units="px"
     inkscape:current-layer="layer1"
     showgrid="false"
     fit-margin-top="0"
     fit-margin-left="0"
     fit-margin-right="0"
     fit-margin-bottom="0"
     inkscape:window-width="840"
     inkscape:window-height="386"
     inkscape:window-x="1754"
     inkscape:window-y="286"
     inkscape:window-maximized="0"
     showguides="false" />
  <metadata
     id="metadata8176">
    <rdf:RDF>
      <cc:Work
         rdf:about="">
        <dc:format>image/svg+xml</dc:format>
        <dc:type
           rdf:resource="http://purl.org/dc/dcmitype/StillImage" />
        <dc:title></dc:title>
      </cc:Work>
    </rdf:RDF>
  </metadata>
  <g
     inkscape:label="Camada 1"
     inkscape:groupmode="layer"
     id="layer1"
     transform="translate(-264.73557,-109.94688)">
    <path
       style="fill:#000000;fill-opacity:1;stroke:none"
       d="M 66.306641 -0.25976562 C 30.257031 -0.25976562 1.0273437 28.879654 1.0273438 64.833984 C 1.0273438 65.575164 1.0475656 66.313628 1.0722656 67.048828 C 1.0255656 67.486528 1.0123219 67.952156 1.0449219 68.441406 C 2.4459219 89.456656 14.257972 112.87036 22.664062 129.48242 C 26.5713 137.20388 29.876206 142.9452 32.335938 146.96289 L -0.234375 179.25781 L 64.349609 179.25781 L 68.248047 179.25781 L 132.83789 179.25781 L 100.22656 146.92188 C 102.68582 142.90556 105.98241 137.17878 109.87695 129.48242 C 116.7525 115.895 125.90136 97.759179 129.77148 80.105469 C 130.60412 76.650289 131.16249 73.084623 131.41797 69.439453 L 131.41797 69.431641 C 131.44487 69.102141 131.46638 68.769776 131.48828 68.441406 C 131.49428 68.355606 131.49505 68.27174 131.49805 68.1875 C 131.50005 68.141 131.50386 68.093375 131.50586 68.046875 L 131.50586 67.951172 C 131.55456 66.919042 131.57617 65.878134 131.57617 64.833984 C 131.57617 28.879634 102.35625 -0.25976562 66.306641 -0.25976562 z M 66.302734 16.554688 C 76.267094 16.554688 84.34375 24.631343 84.34375 34.595703 C 84.34375 44.560053 76.267094 52.638672 66.302734 52.638672 C 56.338384 52.638672 48.259766 44.560053 48.259766 34.595703 C 48.259766 24.631343 56.338384 16.554688 66.302734 16.554688 z M 44.8125 47.996094 C 45.485023 48.002193 46.157144 48.205306 46.714844 48.582031 C 47.473174 49.093821 48.010915 49.919716 48.171875 50.820312 C 48.332825 51.720923 48.114198 52.683011 47.580078 53.425781 L 28.460938 80.830078 L 39.763672 101.13672 C 40.155762 101.94388 40.214985 102.90774 39.921875 103.75586 C 39.628765 104.60399 38.988441 105.32593 38.181641 105.71875 C 37.359251 106.1196 36.372139 106.17224 35.511719 105.86133 C 34.651299 105.55041 33.928934 104.87887 33.552734 104.04492 L 21.320312 82.074219 C 21.095461 81.593776 21.004599 81.061396 21.017578 80.53125 C 21.022873 80.314975 21.046324 80.102015 21.091797 79.890625 C 21.097201 79.864817 21.105346 79.840133 21.111328 79.814453 C 21.140252 79.693704 21.158896 79.569979 21.201172 79.453125 C 21.221816 79.396062 21.255552 79.34487 21.279297 79.289062 C 21.3078 79.219155 21.343914 79.153796 21.376953 79.085938 C 21.433944 78.973607 21.491534 78.86322 21.560547 78.757812 C 21.585218 78.718913 21.600654 78.674561 21.626953 78.636719 L 41.955078 49.501953 C 42.458058 48.758813 43.263471 48.226871 44.144531 48.056641 C 44.364796 48.014086 44.588326 47.994061 44.8125 47.996094 z M 87.789062 48.1875 C 88.013238 48.185467 88.238719 48.203539 88.458984 48.246094 C 89.340044 48.416324 90.145458 48.948266 90.648438 49.691406 L 110.97461 78.828125 C 111.00058 78.8655 111.01662 78.908868 111.04102 78.947266 C 111.1104 79.05313 111.16735 79.164491 111.22461 79.277344 C 111.2577 79.345151 111.2937 79.410625 111.32227 79.480469 C 111.34601 79.536274 111.37975 79.587468 111.40039 79.644531 C 111.44507 79.768039 111.46632 79.897577 111.49609 80.025391 C 111.49956 80.040587 111.50455 80.055072 111.50781 80.070312 C 111.55424 80.282822 111.58018 80.497283 111.58594 80.714844 C 111.58599 80.716787 111.58589 80.71876 111.58594 80.720703 C 111.58597 80.722003 111.58591 80.723309 111.58594 80.724609 C 111.59848 81.253858 111.50572 81.786006 111.28125 82.265625 L 99.050781 104.23633 C 98.674581 105.07028 97.950264 105.74181 97.089844 106.05273 C 96.229424 106.36364 95.244265 106.31101 94.421875 105.91016 C 93.615075 105.51734 92.974751 104.79344 92.681641 103.94531 C 92.388531 103.09719 92.445801 102.13529 92.837891 101.32812 L 104.14062 81.023438 L 85.021484 53.617188 C 84.487364 52.874417 84.268737 51.912329 84.429688 51.011719 C 84.590647 50.111119 85.130342 49.283274 85.888672 48.771484 C 86.446372 48.394759 87.116544 48.193599 87.789062 48.1875 z M 65.949219 80.4375 A 3.4296034 3.4296034 0 0 1 69.478516 83.871094 L 69.982422 123.62891 L 77.609375 123.58789 A 3.4296034 3.4296034 0 1 1 77.648438 130.44141 L 55.679688 130.55859 A 3.4296034 3.4296034 0 1 1 55.646484 123.70508 L 63.121094 123.66602 L 62.617188 83.958984 A 3.4296034 3.4296034 0 0 1 65.949219 80.4375 z M 46.314453 90.541016 A 3.4296034 3.4296034 0 0 1 49.830078 93.984375 L 50.337891 144.04492 A 3.4300121 3.4300121 0 0 1 43.478516 144.11719 L 42.970703 94.050781 A 3.4296034 3.4296034 0 0 1 46.314453 90.541016 z M 85.607422 90.541016 A 3.4296034 3.4296034 0 0 1 89.125 93.984375 L 89.632812 144.04492 A 3.4300121 3.4300121 0 0 1 82.773438 144.11719 L 82.265625 94.050781 A 3.4296034 3.4296034 0 0 1 85.607422 90.541016 z "
       transform="translate(264.73557,109.94688)"
       id="path4130-2" />
    <g
       style="font-style:normal;font-weight:normal;font-size:104.943367px;line-height:125%;font-family:Sans;letter-spacing:0px;word-spacing:0px;fill:#000000;fill-opacity:1;stroke:none"
       id="text4431-7">
      <path
         d="m 462.68458,133.77238 q 0,5.58537 -1.74222,9.88968 -1.74223,4.30432 -5.07295,7.27635 -3.33072,2.92079 -8.1987,4.45804 -4.81673,1.53726 -11.37569,1.53726 l -5.53413,0 0,21.1629 q 0,0.51242 -0.35869,0.92235 -0.30745,0.40994 -1.07608,0.66615 -0.76863,0.2562 -2.04968,0.40993 -1.28104,0.15373 -3.27948,0.15373 -1.94719,0 -3.27948,-0.15373 -1.28104,-0.15373 -2.04967,-0.40993 -0.76863,-0.25621 -1.07608,-0.66615 -0.30745,-0.40993 -0.30745,-0.92235 l 0,-59.64555 q 0,-2.40837 1.2298,-3.58693 1.28105,-1.22981 3.33073,-1.22981 l 15.62877,0 q 2.35712,0 4.45804,0.20497 2.15216,0.15373 5.12419,0.76863 2.97203,0.56366 5.9953,2.15216 3.07451,1.5885 5.22667,4.04811 2.15216,2.40837 3.27948,5.68785 1.12732,3.22823 1.12732,7.27634 z m -14.09151,0.9736 q 0,-3.48445 -1.22981,-5.73909 -1.2298,-2.25465 -3.02327,-3.33072 -1.79347,-1.07608 -3.7919,-1.33229 -1.94719,-0.30745 -4.04811,-0.30745 l -5.73909,0 0,22.49518 6.04654,0 q 3.22824,0 5.3804,-0.87111 2.2034,-0.87111 3.58693,-2.40837 1.38353,-1.5885 2.10092,-3.74066 0.71739,-2.2034 0.71739,-4.76549 z"
         style="font-style:normal;font-variant:normal;font-weight:bold;font-stretch:normal;font-family:Calibri;-inkscape-font-specification:'Calibri Bold';fill:#000000;fill-opacity:1"
         id="path12743" />
      <path
         d="m 532.88596,146.01919 q 0,8.24994 -2.04968,14.75766 -2.04967,6.50772 -6.09778,11.06825 -4.04811,4.50928 -10.04341,6.91765 -5.94406,2.35713 -13.78407,2.35713 -7.73752,0 -13.52785,-1.99844 -5.73909,-2.04967 -9.58223,-6.20026 -3.84314,-4.15059 -5.79034,-10.55583 -1.89595,-6.40523 -1.89595,-15.1676 0,-8.04497 2.04968,-14.45021 2.04968,-6.45647 6.09778,-10.96576 4.04811,-4.50928 9.99217,-6.91765 5.9953,-2.40837 13.88655,-2.40837 7.53255,0 13.27165,1.99843 5.79033,1.99844 9.63347,6.14903 3.89438,4.15059 5.84157,10.50458 1.99844,6.30276 1.99844,14.91139 z m -14.14276,0.71739 q 0,-5.22667 -0.81987,-9.47975 -0.81987,-4.30432 -2.81831,-7.32759 -1.94719,-3.07451 -5.22667,-4.71425 -3.27948,-1.69098 -8.1987,-1.69098 -4.97046,0 -8.30118,1.89595 -3.33072,1.8447 -5.3804,4.97046 -2.04967,3.12575 -2.92079,7.32759 -0.81987,4.15059 -0.81987,8.8136 0,5.43164 0.81987,9.7872 0.81987,4.30432 2.76706,7.37883 1.9472,3.07451 5.22668,4.71425 3.27948,1.5885 8.24994,1.5885 4.97046,0 8.30118,-1.84471 3.33073,-1.8447 5.3804,-5.0217 2.04968,-3.177 2.86955,-7.37883 0.87111,-4.25308 0.87111,-9.01857 z"
         style="font-style:normal;font-variant:normal;font-weight:bold;font-stretch:normal;font-family:Calibri;-inkscape-font-specification:'Calibri Bold';fill:#000000;fill-opacity:1"
         id="path12745" />
      <path
         d="m 598.83426,175.22706 q 0,1.17857 -0.40994,2.10092 -0.40993,0.92235 -1.12732,1.53726 -0.66614,0.6149 -1.63974,0.92235 -0.92235,0.25621 -1.89595,0.25621 l -5.73909,0 q -1.79347,0 -3.12576,-0.35869 -1.28104,-0.3587 -2.40836,-1.28105 -1.07608,-0.9736 -2.10092,-2.5621 -1.02484,-1.63974 -2.30588,-4.20183 l -16.49989,-31.00134 q -1.43477,-2.76706 -2.92079,-5.94405 -1.48601,-3.22824 -2.66457,-6.25151 l -0.10249,0 q 0.20497,3.68941 0.30745,7.37883 0.10249,3.63817 0.10249,7.53255 l 0,34.69076 q 0,0.51241 -0.30745,0.92235 -0.25621,0.40993 -0.9736,0.71739 -0.66614,0.2562 -1.84471,0.40993 -1.17856,0.15373 -3.02327,0.15373 -1.79346,0 -2.97203,-0.15373 -1.17856,-0.15373 -1.84471,-0.40993 -0.66614,-0.30746 -0.92235,-0.71739 -0.25621,-0.40994 -0.25621,-0.92235 l 0,-59.59431 q 0,-2.40837 1.38353,-3.58693 1.43477,-1.22981 3.48445,-1.22981 l 7.2251,0 q 1.9472,0 3.27949,0.3587 1.33228,0.30745 2.35712,1.07608 1.07608,0.76862 1.99843,2.15216 0.92236,1.33228 1.89595,3.33072 l 12.91296,24.23741 q 1.12732,2.2034 2.2034,4.35556 1.12732,2.10091 2.15216,4.25307 1.02483,2.10092 1.99843,4.15059 0.9736,2.04968 1.89595,4.09935 l 0.0512,0 q -0.15372,-3.58693 -0.25621,-7.48131 -0.0512,-3.89438 -0.0512,-7.43007 l 0,-31.10382 q 0,-0.51242 0.30745,-0.92236 0.30745,-0.40993 1.02484,-0.71738 0.71739,-0.30745 1.89595,-0.40994 1.17856,-0.15372 3.02327,-0.15372 1.74222,0 2.92079,0.15372 1.17856,0.10249 1.79346,0.40994 0.66615,0.30745 0.92236,0.71738 0.25621,0.40994 0.25621,0.92236 l 0,59.5943 z"
         style="font-style:normal;font-variant:normal;font-weight:bold;font-stretch:normal;font-family:Calibri;-inkscape-font-specification:'Calibri Bold';fill:#000000;fill-opacity:1"
         id="path12747" />
      <path
         d="m 657.35248,119.16845 q 0,1.48601 -0.15373,2.56209 -0.10248,1.02484 -0.35869,1.69098 -0.25621,0.61491 -0.66614,0.92236 -0.3587,0.30745 -0.81987,0.30745 l -16.60237,0 0,53.44528 q 0,0.51242 -0.3587,0.92235 -0.30745,0.40994 -1.07607,0.66615 -0.76863,0.2562 -2.10092,0.40993 -1.28105,0.15373 -3.22824,0.15373 -1.94719,0 -3.27948,-0.15373 -1.28105,-0.15373 -2.04968,-0.40993 -0.76862,-0.25621 -1.12732,-0.66615 -0.30745,-0.40993 -0.30745,-0.92235 l 0,-53.44528 -16.60237,0 q -0.51242,0 -0.87111,-0.30745 -0.35869,-0.30745 -0.6149,-0.92236 -0.25621,-0.66614 -0.40994,-1.69098 -0.10248,-1.07608 -0.10248,-2.56209 0,-1.53726 0.10248,-2.61334 0.15373,-1.07608 0.40994,-1.69098 0.25621,-0.66615 0.6149,-0.92235 0.35869,-0.30746 0.87111,-0.30746 l 46.7326,0 q 0.46117,0 0.81987,0.30746 0.40993,0.2562 0.66614,0.92235 0.25621,0.6149 0.35869,1.69098 0.15373,1.07608 0.15373,2.61334 z"
         style="font-style:normal;font-variant:normal;font-weight:bold;font-stretch:normal;font-family:Calibri;-inkscape-font-specification:'Calibri Bold';fill:#000000;fill-opacity:1"
         id="path12749" />
      <path
         d="m 722.07097,146.01919 q 0,8.24994 -2.04968,14.75766 -2.04967,6.50772 -6.09778,11.06825 -4.04811,4.50928 -10.04341,6.91765 -5.94406,2.35713 -13.78406,2.35713 -7.73753,0 -13.52786,-1.99844 -5.73909,-2.04967 -9.58223,-6.20026 -3.84314,-4.15059 -5.79033,-10.55583 -1.89595,-6.40523 -1.89595,-15.1676 0,-8.04497 2.04967,-14.45021 2.04968,-6.45647 6.09779,-10.96576 4.0481,-4.50928 9.99216,-6.91765 5.9953,-2.40837 13.88655,-2.40837 7.53256,0 13.27165,1.99843 5.79033,1.99844 9.63347,6.14903 3.89438,4.15059 5.84158,10.50458 1.99843,6.30276 1.99843,14.91139 z m -14.14276,0.71739 q 0,-5.22667 -0.81987,-9.47975 -0.81987,-4.30432 -2.8183,-7.32759 -1.94719,-3.07451 -5.22667,-4.71425 -3.27948,-1.69098 -8.19871,-1.69098 -4.97046,0 -8.30118,1.89595 -3.33072,1.8447 -5.3804,4.97046 -2.04967,3.12575 -2.92078,7.32759 -0.81987,4.15059 -0.81987,8.8136 0,5.43164 0.81987,9.7872 0.81987,4.30432 2.76706,7.37883 1.94719,3.07451 5.22667,4.71425 3.27948,1.5885 8.24994,1.5885 4.97046,0 8.30119,-1.84471 3.33072,-1.8447 5.38039,-5.0217 2.04968,-3.177 2.86955,-7.37883 0.87111,-4.25308 0.87111,-9.01857 z"
         style="font-style:normal;font-variant:normal;font-weight:bold;font-stretch:normal;font-family:Calibri;-inkscape-font-specification:'Calibri Bold';fill:#000000;fill-opacity:1"
         id="path12751" />
    </g>
    <g
       style="font-style:normal;font-weight:normal;font-size:65.08766174px;line-height:125%;font-family:Sans;letter-spacing:0px;word-spacing:0px;fill:#000000;fill-opacity:1;stroke:none"
       id="text4431-4-5">
      <path
         d="m 778.17137,170.91386 q 0,5.65703 -1.49371,9.69323 -1.46193,4.00442 -4.22688,6.5469 -2.76496,2.54249 -6.73759,3.75017 -3.94086,1.1759 -9.4072,1.1759 l -9.82036,0 q -1.04877,0 -1.77974,-0.60384 -0.69918,-0.63562 -0.69918,-2.03399 l 0,-35.84906 q 0,-1.39837 0.69918,-2.00221 0.73097,-0.63562 1.77974,-0.63562 l 10.55132,0 q 5.49813,0 9.31186,1.30302 3.84551,1.27125 6.45156,3.81373 2.63783,2.51071 4.00442,6.2291 1.36658,3.71838 1.36658,8.61267 z m -8.64445,0.28603 q 0,-2.92386 -0.69919,-5.43457 -0.6674,-2.5107 -2.19289,-4.354 -1.49371,-1.84331 -3.87729,-2.8603 -2.3518,-1.04878 -6.19731,-1.04878 l -4.22689,0 0,27.96736 4.35401,0 q 3.43236,0 5.78416,-0.88987 2.3518,-0.88987 3.90907,-2.66961 1.58905,-1.81153 2.3518,-4.48114 0.79453,-2.66961 0.79453,-6.22909 z"
         style="font-style:normal;font-variant:normal;font-weight:bold;font-stretch:normal;font-family:Calibri;-inkscape-font-specification:'Calibri Bold';fill:#000000;fill-opacity:1"
         id="path12754" />
      <path
         d="m 809.44396,188.80661 q 0,0.92165 -0.0953,1.55727 -0.0636,0.60384 -0.22247,0.98522 -0.15891,0.38137 -0.41316,0.57206 -0.22246,0.1589 -0.50849,0.1589 l -20.65771,0 q -1.04877,0 -1.77974,-0.60384 -0.69918,-0.63562 -0.69918,-2.03399 l 0,-35.84906 q 0,-1.39837 0.69918,-2.00221 0.73097,-0.63562 1.77974,-0.63562 l 20.53058,0 q 0.28603,0 0.5085,0.1589 0.22247,0.15891 0.38137,0.57206 0.15891,0.38138 0.22247,1.017 0.0953,0.60384 0.0953,1.55727 0,0.88987 -0.0953,1.52549 -0.0636,0.60384 -0.22247,0.98522 -0.1589,0.38137 -0.38137,0.57206 -0.22247,0.1589 -0.5085,0.1589 l -14.68286,0 0,10.04283 12.42641,0 q 0.28603,0 0.50849,0.19068 0.25425,0.15891 0.41316,0.54028 0.1589,0.34959 0.22247,0.98521 0.0953,0.60384 0.0953,1.49371 0,0.92166 -0.0953,1.5255 -0.0636,0.60384 -0.22247,0.98521 -0.15891,0.34959 -0.41316,0.5085 -0.22246,0.1589 -0.50849,0.1589 l -12.42641,0 0,11.6001 14.80999,0 q 0.28603,0 0.50849,0.19069 0.25425,0.1589 0.41316,0.54027 0.1589,0.38138 0.22247,1.017 0.0953,0.60384 0.0953,1.52549 z"
         style="font-style:normal;font-variant:normal;font-weight:bold;font-stretch:normal;font-family:Calibri;-inkscape-font-specification:'Calibri Bold';fill:#000000;fill-opacity:1"
         id="path12756" />
    </g>
    <g
       style="font-style:normal;font-weight:normal;font-size:123.21025085px;line-height:125%;font-family:Sans;letter-spacing:0px;word-spacing:0px;fill:#000000;fill-opacity:1;stroke:none"
       id="text4431-5-0">
      <path
         d="m 488.72971,284.42317 q 0.72194,2.1658 0.90242,3.42919 0.18048,1.26338 -0.48129,1.92516 -0.66177,0.60161 -2.34629,0.72193 -1.68451,0.18049 -4.63242,0.18049 -3.06822,0 -4.8129,-0.12033 -1.68451,-0.0602 -2.58693,-0.3008 -0.90242,-0.30081 -1.26339,-0.7821 -0.36096,-0.48129 -0.60161,-1.26338 l -5.23403,-15.64193 -29.23837,0 -4.93322,15.2208 q -0.24065,0.84225 -0.66177,1.44387 -0.36097,0.54145 -1.26339,0.90242 -0.84226,0.3008 -2.46661,0.42112 -1.5642,0.12033 -4.15113,0.12033 -2.76742,0 -4.33161,-0.18049 -1.56419,-0.18048 -2.1658,-0.84225 -0.60162,-0.72194 -0.42113,-1.98533 0.18048,-1.26338 0.90242,-3.36903 L 442.947,215.23772 q 0.36096,-1.02274 0.84225,-1.62435 0.48129,-0.66177 1.50403,-0.96258 1.08291,-0.36097 2.94791,-0.42113 1.865,-0.12032 4.93322,-0.12032 3.54951,0 5.65516,0.12032 2.10564,0.0602 3.24871,0.42113 1.20322,0.30081 1.68451,0.96258 0.54145,0.66177 0.90242,1.80484 l 24.0645,69.00496 z m -35.73578,-57.09303 -0.0602,0 -11.00951,33.08869 22.07919,0 -11.00951,-33.08869 z"
         style="font-style:normal;font-variant:normal;font-weight:bold;font-stretch:normal;font-family:Calibri;-inkscape-font-specification:'Calibri Bold';fill:#000000;fill-opacity:1"
         id="path12759" />
      <path
         d="m 551.95919,278.52736 q 0,1.50404 -0.12032,2.58694 -0.0602,1.02274 -0.24064,1.80484 -0.18049,0.72193 -0.48129,1.26338 -0.30081,0.54145 -0.96258,1.26339 -0.66178,0.66177 -2.58694,1.74467 -1.865,1.08291 -4.63241,2.10565 -2.70726,0.96258 -6.25677,1.62435 -3.48936,0.66178 -7.58032,0.66178 -8.00145,0 -14.4387,-2.46662 -6.43726,-2.46661 -10.94935,-7.33967 -4.5121,-4.93322 -6.91855,-12.27289 -2.40645,-7.33968 -2.40645,-17.0858 0,-9.92661 2.6471,-17.62725 2.64709,-7.70064 7.39983,-12.93467 4.75274,-5.23403 11.37048,-7.94128 6.6779,-2.70726 14.67935,-2.70726 3.2487,0 6.25677,0.54145 3.00806,0.54145 5.53483,1.44387 2.58694,0.84226 4.63242,1.98532 2.04548,1.14307 2.82758,1.98532 0.84226,0.7821 1.14306,1.32355 0.30081,0.54145 0.48129,1.38371 0.18049,0.84226 0.24065,1.98532 0.12032,1.14307 0.12032,2.82758 0,1.80484 -0.12032,3.06822 -0.12033,1.26339 -0.42113,2.04549 -0.30081,0.78209 -0.72194,1.14306 -0.42113,0.36097 -0.96258,0.36097 -0.90242,0 -2.28613,-1.02274 -1.3837,-1.08291 -3.60967,-2.34629 -2.16581,-1.32355 -5.23403,-2.34629 -3.00806,-1.0829 -7.21935,-1.0829 -4.63242,0 -8.30225,1.92516 -3.60968,1.865 -6.19661,5.41451 -2.52678,3.48935 -3.85032,8.48274 -1.32355,4.99338 -1.32355,11.25015 0,6.85838 1.38371,11.91193 1.44387,4.99338 4.0308,8.24209 2.6471,3.24871 6.31693,4.87306 3.73,1.5642 8.36242,1.5642 4.21129,0 7.27951,-0.96258 3.06822,-1.02275 5.23403,-2.22597 2.22597,-1.20323 3.60967,-2.16581 1.44387,-0.96258 2.22597,-0.96258 0.60161,0 0.96258,0.24065 0.36097,0.24064 0.60161,0.96258 0.24065,0.72193 0.36097,2.04548 0.12032,1.26339 0.12032,3.42919 z"
         style="font-style:normal;font-variant:normal;font-weight:bold;font-stretch:normal;font-family:Calibri;-inkscape-font-specification:'Calibri Bold';fill:#000000;fill-opacity:1"
         id="path12761" />
      <path
         d="m 609.47334,284.12236 q 0,1.74468 -0.18048,2.9479 -0.12032,1.14307 -0.42113,1.865 -0.30081,0.72194 -0.7821,1.0829 -0.42112,0.30081 -0.96258,0.30081 l -39.10481,0 q -1.98532,0 -3.36903,-1.14306 -1.32355,-1.20323 -1.32355,-3.85032 l 0,-67.8619 q 0,-2.6471 1.32355,-3.79016 1.38371,-1.20322 3.36903,-1.20322 l 38.86417,0 q 0.54145,0 0.96258,0.3008 0.42113,0.30081 0.72193,1.0829 0.30081,0.72194 0.42113,1.92516 0.18049,1.14307 0.18049,2.94791 0,1.68451 -0.18049,2.88774 -0.12032,1.14306 -0.42113,1.865 -0.3008,0.72193 -0.72193,1.0829 -0.42113,0.3008 -0.96258,0.3008 l -27.7945,0 0,19.01096 23.52305,0 q 0.54145,0 0.96258,0.36097 0.48129,0.3008 0.7821,1.02274 0.3008,0.66177 0.42113,1.865 0.18048,1.14306 0.18048,2.82758 0,1.74467 -0.18048,2.88774 -0.12033,1.14306 -0.42113,1.865 -0.30081,0.66177 -0.7821,0.96258 -0.42113,0.3008 -0.96258,0.3008 l -23.52305,0 0,21.95886 28.03514,0 q 0.54146,0 0.96258,0.36097 0.48129,0.3008 0.7821,1.02274 0.30081,0.72194 0.42113,1.92516 0.18048,1.14306 0.18048,2.88774 z"
         style="font-style:normal;font-variant:normal;font-weight:bold;font-stretch:normal;font-family:Calibri;-inkscape-font-specification:'Calibri Bold';fill:#000000;fill-opacity:1"
         id="path12763" />
      <path
         d="m 668.43138,266.9764 q 0,6.13645 -2.28613,10.76887 -2.28612,4.63241 -6.19661,7.7608 -3.91048,3.06822 -9.14451,4.63242 -5.23403,1.56419 -11.18999,1.56419 -4.0308,0 -7.52016,-0.66178 -3.42919,-0.66177 -6.07628,-1.56419 -2.6471,-0.96258 -4.45194,-1.98532 -1.74467,-1.02274 -2.52677,-1.80484 -0.78209,-0.78209 -1.14306,-2.22596 -0.30081,-1.50403 -0.30081,-4.27145 0,-1.865 0.12032,-3.12839 0.12033,-1.26338 0.36097,-2.04548 0.30081,-0.7821 0.72194,-1.0829 0.48129,-0.36097 1.0829,-0.36097 0.84226,0 2.34629,1.02274 1.56419,0.96258 3.97064,2.16581 2.40645,1.20322 5.71532,2.22596 3.36903,0.96258 7.7608,0.96258 2.88774,0 5.17387,-0.66177 2.28613,-0.72194 3.85032,-1.98532 1.62435,-1.26339 2.46661,-3.12839 0.84226,-1.865 0.84226,-4.15112 0,-2.6471 -1.44387,-4.5121 -1.44387,-1.92516 -3.79016,-3.36903 -2.28613,-1.50403 -5.23403,-2.76742 -2.9479,-1.32354 -6.07629,-2.76741 -3.12838,-1.44387 -6.07628,-3.24871 -2.9479,-1.865 -5.29419,-4.39177 -2.28613,-2.58694 -3.73,-6.07629 -1.44387,-3.48935 -1.44387,-8.36242 0,-5.59499 2.04548,-9.80628 2.10565,-4.27145 5.595,-7.03887 3.54951,-2.82758 8.30225,-4.21128 4.8129,-1.38371 10.16725,-1.38371 2.76742,0 5.53484,0.42113 2.76742,0.42112 5.17387,1.14306 2.40645,0.72193 4.27145,1.62435 1.865,0.90242 2.46661,1.50403 0.60161,0.60162 0.78209,1.02275 0.24065,0.42112 0.36097,1.14306 0.18049,0.66177 0.24065,1.74468 0.0602,1.02274 0.0602,2.58693 0,1.74468 -0.12032,2.9479 -0.0602,1.20323 -0.30081,1.98532 -0.18048,0.7821 -0.60161,1.14307 -0.36097,0.36096 -1.02274,0.36096 -0.66178,0 -2.10565,-0.84225 -1.44387,-0.84226 -3.54951,-1.80484 -2.10565,-1.02274 -4.87306,-1.80484 -2.76742,-0.84226 -6.07629,-0.84226 -2.58694,0 -4.5121,0.66178 -1.92516,0.60161 -3.2487,1.74467 -1.26339,1.08291 -1.92516,2.6471 -0.60162,1.56419 -0.60162,3.30887 0,2.58693 1.38371,4.51209 1.44387,1.865 3.79016,3.36903 2.40645,1.44387 5.41451,2.76742 3.00807,1.26339 6.13645,2.70726 3.12839,1.44387 6.13645,3.30887 3.00806,1.80483 5.35435,4.39177 2.34629,2.52677 3.79016,6.01612 1.44387,3.42919 1.44387,8.12177 z"
         style="font-style:normal;font-variant:normal;font-weight:bold;font-stretch:normal;font-family:Calibri;-inkscape-font-specification:'Calibri Bold';fill:#000000;fill-opacity:1"
         id="path12765" />
      <path
         d="m 726.66748,266.9764 q 0,6.13645 -2.28613,10.76887 -2.28612,4.63241 -6.19661,7.7608 -3.91048,3.06822 -9.14451,4.63242 -5.23403,1.56419 -11.18999,1.56419 -4.0308,0 -7.52016,-0.66178 -3.42919,-0.66177 -6.07628,-1.56419 -2.6471,-0.96258 -4.45194,-1.98532 -1.74467,-1.02274 -2.52677,-1.80484 -0.7821,-0.78209 -1.14306,-2.22596 -0.30081,-1.50403 -0.30081,-4.27145 0,-1.865 0.12032,-3.12839 0.12033,-1.26338 0.36097,-2.04548 0.30081,-0.7821 0.72194,-1.0829 0.48129,-0.36097 1.0829,-0.36097 0.84226,0 2.34629,1.02274 1.56419,0.96258 3.97064,2.16581 2.40645,1.20322 5.71532,2.22596 3.36903,0.96258 7.7608,0.96258 2.88774,0 5.17387,-0.66177 2.28613,-0.72194 3.85032,-1.98532 1.62435,-1.26339 2.46661,-3.12839 0.84226,-1.865 0.84226,-4.15112 0,-2.6471 -1.44387,-4.5121 -1.44387,-1.92516 -3.79016,-3.36903 -2.28613,-1.50403 -5.23403,-2.76742 -2.9479,-1.32354 -6.07629,-2.76741 -3.12838,-1.44387 -6.07628,-3.24871 -2.9479,-1.865 -5.29419,-4.39177 -2.28613,-2.58694 -3.73,-6.07629 -1.44387,-3.48935 -1.44387,-8.36242 0,-5.59499 2.04548,-9.80628 2.10564,-4.27145 5.595,-7.03887 3.54951,-2.82758 8.30225,-4.21128 4.8129,-1.38371 10.16725,-1.38371 2.76742,0 5.53484,0.42113 2.76742,0.42112 5.17387,1.14306 2.40645,0.72193 4.27145,1.62435 1.86499,0.90242 2.46661,1.50403 0.60161,0.60162 0.78209,1.02275 0.24065,0.42112 0.36097,1.14306 0.18048,0.66177 0.24065,1.74468 0.0602,1.02274 0.0602,2.58693 0,1.74468 -0.12033,2.9479 -0.0602,1.20323 -0.3008,1.98532 -0.18049,0.7821 -0.60161,1.14307 -0.36097,0.36096 -1.02275,0.36096 -0.66177,0 -2.10564,-0.84225 -1.44387,-0.84226 -3.54951,-1.80484 -2.10565,-1.02274 -4.87307,-1.80484 -2.76741,-0.84226 -6.07628,-0.84226 -2.58694,0 -4.5121,0.66178 -1.92516,0.60161 -3.2487,1.74467 -1.26339,1.08291 -1.92516,2.6471 -0.60162,1.56419 -0.60162,3.30887 0,2.58693 1.38371,4.51209 1.44387,1.865 3.79016,3.36903 2.40645,1.44387 5.41451,2.76742 3.00807,1.26339 6.13645,2.70726 3.12839,1.44387 6.13645,3.30887 3.00806,1.80483 5.35435,4.39177 2.34629,2.52677 3.79016,6.01612 1.44387,3.42919 1.44387,8.12177 z"
         style="font-style:normal;font-variant:normal;font-weight:bold;font-stretch:normal;font-family:Calibri;-inkscape-font-specification:'Calibri Bold';fill:#000000;fill-opacity:1"
         id="path12767" />
      <path
         d="m 808.7876,250.49222 q 0,9.68596 -2.40645,17.32644 -2.40645,7.64048 -7.15919,12.99483 -4.75274,5.29419 -11.79161,8.12177 -6.9787,2.76742 -16.18337,2.76742 -9.08435,0 -15.88258,-2.34629 -6.73806,-2.40645 -11.25015,-7.27951 -4.51209,-4.87306 -6.79822,-12.39322 -2.22597,-7.52016 -2.22597,-17.80773 0,-9.44532 2.40645,-16.96548 2.40645,-7.58031 7.15919,-12.87451 4.75274,-5.29419 11.73145,-8.12176 7.03886,-2.82758 16.3037,-2.82758 8.8437,0 15.58176,2.34629 6.79822,2.34628 11.31032,7.21935 4.57225,4.87306 6.85838,12.33305 2.34629,7.39984 2.34629,17.50693 z m -16.60451,0.84226 q 0,-6.13645 -0.96258,-11.12984 -0.96258,-5.05354 -3.30887,-8.60306 -2.28612,-3.60967 -6.13644,-5.53483 -3.85033,-1.98532 -9.62581,-1.98532 -5.83564,0 -9.74612,2.22596 -3.91048,2.16581 -6.31693,5.83565 -2.40645,3.66983 -3.42919,8.60306 -0.96258,4.87306 -0.96258,10.34773 0,6.37709 0.96258,11.4908 0.96258,5.05355 3.24871,8.66322 2.28612,3.60968 6.13644,5.53484 3.85032,1.865 9.68597,1.865 5.83564,0 9.74612,-2.16581 3.91048,-2.1658 6.31693,-5.8958 2.40645,-3.73 3.36903,-8.66322 1.02274,-4.99339 1.02274,-10.58838 z"
         style="font-style:normal;font-variant:normal;font-weight:bold;font-stretch:normal;font-family:Calibri;-inkscape-font-specification:'Calibri Bold';fill:#000000;fill-opacity:1"
         id="path12769" />
    </g>
  </g>
</svg>
