<?xml version="1.0" encoding="UTF-8" standalone="no"?>
<!-- Created with Inkscape (http://www.inkscape.org/) -->

<svg
   xmlns:dc="http://purl.org/dc/elements/1.1/"
   xmlns:cc="http://creativecommons.org/ns#"
   xmlns:rdf="http://www.w3.org/1999/02/22-rdf-syntax-ns#"
   xmlns:svg="http://www.w3.org/2000/svg"
   xmlns="http://www.w3.org/2000/svg"
   xmlns:sodipodi="http://sodipodi.sourceforge.net/DTD/sodipodi-0.dtd"
   xmlns:inkscape="http://www.inkscape.org/namespaces/inkscape"
   width="779.54877mm"
   height="260.26193mm"
   viewBox="0 0 2762.1807 922.18795"
   id="svg12809"
   version="1.1"
   inkscape:version="0.91 r13725"
   sodipodi:docname="logo-ponto-de-acesso.svg">
  <defs
     id="defs12811" />
  <sodipodi:namedview
     id="base"
     pagecolor="#ffffff"
     bordercolor="#666666"
     borderopacity="1.0"
     inkscape:pageopacity="0.0"
     inkscape:pageshadow="2"
     inkscape:zoom="0.04375"
     inkscape:cx="-642.32082"
     inkscape:cy="83.627605"
     inkscape:document-units="px"
     inkscape:current-layer="g12999"
     showgrid="false"
     fit-margin-top="0"
     fit-margin-left="0"
     fit-margin-right="0"
     fit-margin-bottom="0"
     inkscape:window-width="856"
     inkscape:window-height="466"
     inkscape:window-x="1761"
     inkscape:window-y="379"
     inkscape:window-maximized="0" />
  <metadata
     id="metadata12814">
    <rdf:RDF>
      <cc:Work
         rdf:about="">
        <dc:format>image/svg+xml</dc:format>
        <dc:type
           rdf:resource="http://purl.org/dc/dcmitype/StillImage" />
        <dc:title></dc:title>
      </cc:Work>
    </rdf:RDF>
  </metadata>
  <g
     inkscape:label="Camada 1"
     inkscape:groupmode="layer"
     id="layer1"
     transform="translate(1556.4465,-2840.9337)">
    <g
       id="g8105"
       transform="translate(3864.5452,-1508.9466)">
      <g
         id="g12999">
        <path
           style="fill:#004840;fill-opacity:1;stroke:none"
           d="m -5082.6436,4349.8803 c -182.6459,0 -330.7352,147.6405 -330.7352,329.8037 0,3.7552 0.097,7.4992 0.2218,11.2241 -0.2365,2.2176 -0.2984,4.5752 -0.133,7.054 7.0982,106.4741 66.9456,225.0977 109.5352,309.263 42.5896,84.1653 71.9587,123.7318 71.9587,123.7318 l 297.9058,0 c 0,0 29.4135,-39.5665 72.0032,-123.7318 34.8351,-68.8409 81.1875,-160.7271 100.7955,-250.1699 4.2186,-17.5057 7.0461,-35.5673 8.3405,-54.0356 0,-0.015 0,-0.03 0,-0.044 0.1364,-1.6694 0.244,-3.3495 0.3549,-5.0132 0.029,-0.4349 0.028,-0.8598 0.044,-1.2866 0.011,-0.2356 0.033,-0.474 0.044,-0.7098 0,-0.1639 0,-0.3253 0,-0.488 0.247,-5.2293 0.3549,-10.5034 0.3549,-15.7936 0,-182.1633 -148.0451,-329.8037 -330.691,-329.8037 z"
           id="path4130-2-1"
           inkscape:connector-curvature="0" />
        <path
           style="fill:#00796b;fill-opacity:1;stroke:#ffffff"
           d="m -5210.4335,5051.8469 -209.3438,207.5625 327.2188,0 19.75,0 327.25,0 -209.3438,-207.5625 z"
           id="path4043-4-1"
           inkscape:connector-curvature="0"
           sodipodi:nodetypes="ccccccc" />
        <g
           id="g8091-9-2"
           transform="matrix(0.95784318,0,0,0.95784318,-190.64539,2954.2957)">
          <g
             transform="translate(-4476.9933,2695.087)"
             id="g4398-8-8">
            <path
               id="path3845-4-7"
               d="m -534.90156,-1053.707 c 0,52.7065 -42.72705,95.43356 -95.43357,95.43356 -52.7065,0 -95.43355,-42.72706 -95.43355,-95.43356 0,-52.7065 42.72705,-95.4336 95.43355,-95.4336 52.70652,0 95.43357,42.7271 95.43357,95.4336 z"
               style="fill:#ffffff;stroke-width:20;stroke-linecap:round;stroke-linejoin:round;stroke-miterlimit:4"
               inkscape:connector-curvature="0" />
            <path
               inkscape:connector-curvature="0"
               id="path3951-2-0"
               d="m -632.19586,-811.22668 a 18.140903,18.140903 0 0 0 -17.62538,18.62918 l 2.68662,211.8884 a 18.143578,18.143578 0 1 0 36.28408,-0.47237 l -2.68662,-211.8884 a 18.140903,18.140903 0 0 0 -18.6587,-18.15681 z"
               style="color:#000000;font-style:normal;font-variant:normal;font-weight:normal;font-stretch:normal;font-size:medium;line-height:normal;font-family:Sans;-inkscape-font-specification:Sans;text-indent:0;text-align:start;text-decoration:none;text-decoration-line:none;letter-spacing:normal;word-spacing:normal;text-transform:none;direction:ltr;block-progression:tb;writing-mode:lr-tb;baseline-shift:baseline;text-anchor:start;display:inline;overflow:visible;visibility:visible;fill:#ffffff;fill-opacity:1;stroke:none;stroke-width:38.40000153;marker:none;enable-background:accumulate" />
            <path
               inkscape:connector-curvature="0"
               id="path3951-0-5-2"
               d="m -736.05867,-757.78958 a 18.140903,18.140903 0 0 0 -17.68443,18.57012 l 2.68662,264.8236 a 18.143055,18.143055 0 1 0 36.28408,-0.3838 l -2.68662,-264.79408 a 18.140903,18.140903 0 0 0 -18.59965,-18.21584 z"
               style="color:#000000;font-style:normal;font-variant:normal;font-weight:normal;font-stretch:normal;font-size:medium;line-height:normal;font-family:Sans;-inkscape-font-specification:Sans;text-indent:0;text-align:start;text-decoration:none;text-decoration-line:none;letter-spacing:normal;word-spacing:normal;text-transform:none;direction:ltr;block-progression:tb;writing-mode:lr-tb;baseline-shift:baseline;text-anchor:start;display:inline;overflow:visible;visibility:visible;fill:#ffffff;fill-opacity:1;stroke:none;stroke-width:38.40000153;marker:none;enable-background:accumulate" />
            <path
               inkscape:connector-curvature="0"
               id="path3951-0-2-7-5"
               d="m -528.21495,-757.78958 a 18.140903,18.140903 0 0 0 -17.68443,18.57012 l 2.68662,264.8236 a 18.143055,18.143055 0 1 0 36.28408,-0.3838 l -2.68662,-264.79408 a 18.140903,18.140903 0 0 0 -18.59965,-18.21584 z"
               style="color:#000000;font-style:normal;font-variant:normal;font-weight:normal;font-stretch:normal;font-size:medium;line-height:normal;font-family:Sans;-inkscape-font-specification:Sans;text-indent:0;text-align:start;text-decoration:none;text-decoration-line:none;letter-spacing:normal;word-spacing:normal;text-transform:none;direction:ltr;block-progression:tb;writing-mode:lr-tb;baseline-shift:baseline;text-anchor:start;display:inline;overflow:visible;visibility:visible;fill:#ffffff;fill-opacity:1;stroke:none;stroke-width:38.40000153;marker:none;enable-background:accumulate" />
            <path
               inkscape:connector-curvature="0"
               id="path3951-8-6-5"
               d="m -570.52178,-582.98239 -116.174,0.61999 a 18.140903,18.140903 0 1 0 0.17714,36.25455 l 116.20353,-0.61998 a 18.140903,18.140903 0 1 0 -0.20667,-36.25456 z"
               style="color:#000000;font-style:normal;font-variant:normal;font-weight:normal;font-stretch:normal;font-size:medium;line-height:normal;font-family:Sans;-inkscape-font-specification:Sans;text-indent:0;text-align:start;text-decoration:none;text-decoration-line:none;letter-spacing:normal;word-spacing:normal;text-transform:none;direction:ltr;block-progression:tb;writing-mode:lr-tb;baseline-shift:baseline;text-anchor:start;display:inline;overflow:visible;visibility:visible;fill:#ffffff;fill-opacity:1;stroke:none;stroke-width:38.40000153;marker:none;enable-background:accumulate" />
          </g>
          <g
             transform="translate(-4357.8651,1673.5303)"
             style="fill:#ffffff"
             id="g4370-53-7">
            <path
               sodipodi:nodetypes="csccsssccsc"
               inkscape:connector-curvature="0"
               id="path3951-0-7-74-3"
               d="m -853.06948,41.825482 c -3.93326,-2.65692 -8.9354,-3.679359 -13.59576,-2.778971 -4.66036,0.900389 -8.92166,3.712541 -11.58214,7.64338 L -985.76794,200.80624 c -2.70877,3.89781 -3.79749,8.88594 -2.95922,13.55794 0.83827,4.672 3.59324,8.97047 7.48814,11.6834 3.89489,2.71293 8.88189,3.807 13.55478,2.97373 4.67288,-0.83328 8.9743,-3.58368 11.6914,-7.47568 L -848.48937,67.453342 c 2.82524,-3.928898 3.98102,-9.018769 3.12966,-13.782524 -0.85137,-4.763756 -3.69858,-9.138227 -7.70977,-11.845336 z"
               style="color:#000000;font-style:normal;font-variant:normal;font-weight:normal;font-stretch:normal;font-size:medium;line-height:normal;font-family:Sans;-inkscape-font-specification:Sans;text-indent:0;text-align:start;text-decoration:none;text-decoration-line:none;letter-spacing:normal;word-spacing:normal;text-transform:none;direction:ltr;block-progression:tb;writing-mode:lr-tb;baseline-shift:baseline;text-anchor:start;display:inline;overflow:visible;visibility:visible;fill:#ffffff;fill-opacity:1;stroke:none;stroke-width:38.40000153;marker:none;enable-background:accumulate" />
            <path
               sodipodi:nodetypes="csccsssccsc"
               inkscape:connector-curvature="0"
               id="path3951-0-7-8-4-3"
               d="m -898.21009,344.05252 c 4.26757,-2.07783 7.65412,-5.89859 9.20454,-10.38478 1.55041,-4.48618 1.24568,-9.58266 -0.8283,-13.85212 l -64.70841,-116.24508 c -2.02123,-4.29477 -5.79671,-7.73169 -10.26192,-9.34173 -4.46519,-1.61004 -9.56527,-1.3734 -13.86218,0.64322 -4.29689,2.01659 -7.73785,5.78835 -9.35267,10.25181 -1.6148,4.4635 -1.3836,9.56384 0.62843,13.8629 l 64.69608,116.21835 c 1.98989,4.41119 5.81997,7.95704 10.37117,9.60162 4.55123,1.64457 9.76324,1.36606 14.11326,-0.75419 z"
               style="color:#000000;font-style:normal;font-variant:normal;font-weight:normal;font-stretch:normal;font-size:medium;line-height:normal;font-family:Sans;-inkscape-font-specification:Sans;text-indent:0;text-align:start;text-decoration:none;text-decoration-line:none;letter-spacing:normal;word-spacing:normal;text-transform:none;direction:ltr;block-progression:tb;writing-mode:lr-tb;baseline-shift:baseline;text-anchor:start;display:inline;overflow:visible;visibility:visible;fill:#ffffff;fill-opacity:1;stroke:none;stroke-width:38.40000153;marker:none;enable-background:accumulate" />
          </g>
          <g
             style="fill:#ffffff"
             id="g4370-5-2-9"
             transform="matrix(-1,0,0,1,-5856.7974,1674.5404)">
            <path
               sodipodi:nodetypes="csccsssccsc"
               inkscape:connector-curvature="0"
               id="path3951-0-7-7-4-1"
               d="m -853.06948,41.825482 c -3.93326,-2.65692 -8.9354,-3.679359 -13.59576,-2.778971 -4.66036,0.900389 -8.92166,3.712541 -11.58214,7.64338 L -985.76794,200.80624 c -2.70877,3.89781 -3.79749,8.88594 -2.95922,13.55794 0.83827,4.672 3.59324,8.97047 7.48814,11.6834 3.89489,2.71293 8.88189,3.807 13.55478,2.97373 4.67288,-0.83328 8.9743,-3.58368 11.6914,-7.47568 L -848.48937,67.453342 c 2.82524,-3.928898 3.98102,-9.018769 3.12966,-13.782524 -0.85137,-4.763756 -3.69858,-9.138227 -7.70977,-11.845336 z"
               style="color:#000000;font-style:normal;font-variant:normal;font-weight:normal;font-stretch:normal;font-size:medium;line-height:normal;font-family:Sans;-inkscape-font-specification:Sans;text-indent:0;text-align:start;text-decoration:none;text-decoration-line:none;letter-spacing:normal;word-spacing:normal;text-transform:none;direction:ltr;block-progression:tb;writing-mode:lr-tb;baseline-shift:baseline;text-anchor:start;display:inline;overflow:visible;visibility:visible;fill:#ffffff;fill-opacity:1;stroke:none;stroke-width:38.40000153;marker:none;enable-background:accumulate" />
            <path
               sodipodi:nodetypes="csccsssccsc"
               inkscape:connector-curvature="0"
               id="path3951-0-7-8-0-3-9"
               d="m -898.21009,344.05252 c 4.26757,-2.07783 7.65412,-5.89859 9.20454,-10.38478 1.55041,-4.48618 1.24568,-9.58266 -0.8283,-13.85212 l -64.70841,-116.24508 c -2.02123,-4.29477 -5.79671,-7.73169 -10.26192,-9.34173 -4.46519,-1.61004 -9.56527,-1.3734 -13.86218,0.64322 -4.29689,2.01659 -7.73785,5.78835 -9.35267,10.25181 -1.6148,4.4635 -1.3836,9.56384 0.62843,13.8629 l 64.69608,116.21835 c 1.98989,4.41119 5.81997,7.95704 10.37117,9.60162 4.55123,1.64457 9.76324,1.36606 14.11326,-0.75419 z"
               style="color:#000000;font-style:normal;font-variant:normal;font-weight:normal;font-stretch:normal;font-size:medium;line-height:normal;font-family:Sans;-inkscape-font-specification:Sans;text-indent:0;text-align:start;text-decoration:none;text-decoration-line:none;letter-spacing:normal;word-spacing:normal;text-transform:none;direction:ltr;block-progression:tb;writing-mode:lr-tb;baseline-shift:baseline;text-anchor:start;display:inline;overflow:visible;visibility:visible;fill:#ffffff;fill-opacity:1;stroke:none;stroke-width:38.40000153;marker:none;enable-background:accumulate" />
          </g>
        </g>
        <g
           style="font-style:normal;font-weight:normal;font-size:531.69726563px;line-height:125%;font-family:Sans;letter-spacing:0px;word-spacing:0px;fill:#082e6a;fill-opacity:1;stroke:none"
           id="text4431-7-2">
          <path
             d="m -4415.6733,4471.9115 q 0,28.2983 -8.827,50.1062 -8.827,21.8079 -25.7022,36.8658 -16.8751,14.7982 -41.5388,22.5867 -24.4041,7.7886 -57.6352,7.7886 l -28.0387,0 0,107.2221 q 0,2.5962 -1.8173,4.6731 -1.5577,2.077 -5.452,3.3751 -3.8943,1.298 -10.3847,2.0769 -6.4904,0.7789 -16.6155,0.7789 -9.8655,0 -16.6156,-0.7789 -6.4904,-0.7789 -10.3847,-2.0769 -3.8943,-1.2981 -5.452,-3.3751 -1.5577,-2.0769 -1.5577,-4.6731 l 0,-302.1951 q 0,-12.2021 6.2309,-18.1733 6.4904,-6.2308 16.8751,-6.2308 l 79.1834,0 q 11.9425,0 22.5868,1.0385 10.9039,0.7788 25.9618,3.8942 15.0578,2.8558 30.3753,10.904 15.577,8.0481 26.481,20.5098 10.9039,12.202 16.6155,28.8176 5.7116,16.3559 5.7116,36.8657 z m -71.3949,4.9327 q 0,-17.654 -6.2308,-29.0772 -6.2308,-11.4231 -15.3175,-16.8751 -9.0866,-5.452 -19.2117,-6.7501 -9.8655,-1.5577 -20.5098,-1.5577 l -29.0772,0 0,113.9722 30.6349,0 q 16.3559,0 27.2599,-4.4135 11.1635,-4.4135 18.1732,-12.202 7.0097,-8.0482 10.6444,-18.9521 3.6346,-11.1636 3.6346,-24.1445 z"
             style="font-style:normal;font-variant:normal;font-weight:bold;font-stretch:normal;font-family:Calibri;-inkscape-font-specification:'Calibri Bold';fill:#082e6a;fill-opacity:1"
             id="path8115" />
          <path
             d="m -4059.9969,4533.9602 q 0,41.7984 -10.3847,74.7699 -10.3847,32.9715 -30.8945,56.0774 -20.5098,22.8464 -50.8851,35.0484 -30.1157,11.9425 -69.8372,11.9425 -39.2023,0 -68.5391,-10.1251 -29.0772,-10.3847 -48.5485,-31.4138 -19.4714,-21.029 -29.3368,-53.4813 -9.6059,-32.4522 -9.6059,-76.8468 0,-40.76 10.3847,-73.2123 10.3847,-32.7118 30.8945,-55.5582 20.5098,-22.8463 50.6255,-35.0484 30.3753,-12.202 70.3564,-12.202 38.1638,0 67.241,10.1251 29.3369,10.1251 48.8082,31.1541 19.7309,21.0291 29.5964,53.2217 10.1251,31.933 10.1251,75.5488 z m -71.6545,3.6346 q 0,-26.481 -4.1539,-48.0293 -4.1539,-21.8079 -14.279,-37.1253 -9.8654,-15.5771 -26.481,-23.8849 -16.6155,-8.5674 -41.5388,-8.5674 -25.183,0 -42.0581,9.6059 -16.8752,9.3462 -27.2599,25.1829 -10.3847,15.8367 -14.7982,37.1254 -4.1539,21.029 -4.1539,44.6542 0,27.5195 4.1539,49.587 4.1539,21.8079 14.0194,37.385 9.8654,15.5771 26.481,23.8848 16.6155,8.0482 41.7984,8.0482 25.183,0 42.0581,-9.3462 16.8752,-9.3463 27.2599,-25.4426 10.3847,-16.0963 14.5386,-37.385 4.4135,-21.5482 4.4135,-45.6927 z"
             style="font-style:normal;font-variant:normal;font-weight:bold;font-stretch:normal;font-family:Calibri;-inkscape-font-specification:'Calibri Bold';fill:#082e6a;fill-opacity:1"
             id="path8117" />
          <path
             d="m -3725.8688,4681.9423 q 0,5.9712 -2.0769,10.6443 -2.0769,4.6732 -5.7116,7.7886 -3.375,3.1154 -8.3078,4.6731 -4.6731,1.2981 -9.6058,1.2981 l -29.0772,0 q -9.0866,0 -15.8367,-1.8173 -6.4904,-1.8174 -12.202,-6.4905 -5.452,-4.9327 -10.6444,-12.9809 -5.1923,-8.3077 -11.6828,-21.2886 l -83.5969,-157.0688 q -7.2693,-14.0194 -14.7982,-30.1157 -7.5289,-16.3559 -13.5001,-31.6733 l -0.5193,0 q 1.0385,18.6924 1.5577,37.3849 0.5193,18.4329 0.5193,38.1638 l 0,175.7613 q 0,2.5962 -1.5577,4.6731 -1.2981,2.077 -4.9328,3.6347 -3.375,1.298 -9.3462,2.0769 -5.9712,0.7789 -15.3175,0.7789 -9.0866,0 -15.0578,-0.7789 -5.9712,-0.7789 -9.3462,-2.0769 -3.3751,-1.5577 -4.6732,-3.6347 -1.298,-2.0769 -1.298,-4.6731 l 0,-301.9355 q 0,-12.2021 7.0096,-18.1733 7.2693,-6.2308 17.654,-6.2308 l 36.6062,0 q 9.8654,0 16.6155,1.8173 6.7501,1.5577 11.9424,5.452 5.452,3.8943 10.1251,10.904 4.6731,6.75 9.6059,16.8751 l 65.4237,122.7992 q 5.7115,11.1636 11.1635,22.0675 5.7116,10.6444 10.904,21.5483 5.1923,10.6444 10.1251,21.0291 4.9327,10.3847 9.6058,20.7694 l 0.2596,0 q -0.7788,-18.1733 -1.2981,-37.9042 -0.2596,-19.731 -0.2596,-37.6446 l 0,-157.588 q 0,-2.5962 1.5577,-4.6731 1.5577,-2.077 5.1924,-3.6347 3.6346,-1.5577 9.6059,-2.0769 5.9712,-0.7789 15.3174,-0.7789 8.827,0 14.7982,0.7789 5.9712,0.5192 9.0866,2.0769 3.3751,1.5577 4.6732,3.6347 1.298,2.0769 1.298,4.6731 l 0,301.9355 z"
             style="font-style:normal;font-variant:normal;font-weight:bold;font-stretch:normal;font-family:Calibri;-inkscape-font-specification:'Calibri Bold';fill:#082e6a;fill-opacity:1"
             id="path8119" />
          <path
             d="m -3429.3852,4397.9204 q 0,7.5289 -0.7789,12.9809 -0.5192,5.1924 -1.8173,8.5674 -1.2981,3.1154 -3.375,4.6731 -1.8174,1.5577 -4.1539,1.5577 l -84.1162,0 0,270.7814 q 0,2.5962 -1.8173,4.6731 -1.5577,2.077 -5.452,3.3751 -3.8943,1.298 -10.6443,2.0769 -6.4905,0.7789 -16.356,0.7789 -9.8654,0 -16.6155,-0.7789 -6.4904,-0.7789 -10.3847,-2.0769 -3.8943,-1.2981 -5.7116,-3.3751 -1.5577,-2.0769 -1.5577,-4.6731 l 0,-270.7814 -84.1162,0 q -2.5961,0 -4.4135,-1.5577 -1.8173,-1.5577 -3.1154,-4.6731 -1.2981,-3.375 -2.0769,-8.5674 -0.5193,-5.452 -0.5193,-12.9809 0,-7.7885 0.5193,-13.2405 0.7788,-5.452 2.0769,-8.5674 1.2981,-3.375 3.1154,-4.6731 1.8174,-1.5577 4.4135,-1.5577 l 236.7715,0 q 2.3365,0 4.1539,1.5577 2.0769,1.2981 3.375,4.6731 1.2981,3.1154 1.8173,8.5674 0.7789,5.452 0.7789,13.2405 z"
             style="font-style:normal;font-variant:normal;font-weight:bold;font-stretch:normal;font-family:Calibri;-inkscape-font-specification:'Calibri Bold';fill:#082e6a;fill-opacity:1"
             id="path8121" />
          <path
             d="m -3101.4879,4533.9602 q 0,41.7984 -10.3848,74.7699 -10.3847,32.9715 -30.8945,56.0774 -20.5098,22.8464 -50.8851,35.0484 -30.1156,11.9425 -69.8372,11.9425 -39.2022,0 -68.5391,-10.1251 -29.0772,-10.3847 -48.5485,-31.4138 -19.4713,-21.029 -29.3368,-53.4813 -9.6059,-32.4522 -9.6059,-76.8468 0,-40.76 10.3848,-73.2123 10.3847,-32.7118 30.8945,-55.5582 20.5098,-22.8463 50.6254,-35.0484 30.3753,-12.202 70.3565,-12.202 38.1638,0 67.241,10.1251 29.3368,10.1251 48.8081,31.1541 19.731,21.0291 29.5965,53.2217 10.1251,31.933 10.1251,75.5488 z m -71.6546,3.6346 q 0,-26.481 -4.1538,-48.0293 -4.1539,-21.8079 -14.279,-37.1253 -9.8655,-15.5771 -26.481,-23.8849 -16.6156,-8.5674 -41.5389,-8.5674 -25.1829,0 -42.0581,9.6059 -16.8751,9.3462 -27.2598,25.1829 -10.3848,15.8367 -14.7983,37.1254 -4.1538,21.029 -4.1538,44.6542 0,27.5195 4.1538,49.587 4.1539,21.8079 14.0194,37.385 9.8655,15.5771 26.481,23.8848 16.6156,8.0482 41.7985,8.0482 25.1829,0 42.0581,-9.3462 16.8751,-9.3463 27.2598,-25.4426 10.3847,-16.0963 14.5386,-37.385 4.4135,-21.5482 4.4135,-45.6927 z"
             style="font-style:normal;font-variant:normal;font-weight:bold;font-stretch:normal;font-family:Calibri;-inkscape-font-specification:'Calibri Bold';fill:#082e6a;fill-opacity:1"
             id="path8123" />
        </g>
        <g
           style="font-style:normal;font-weight:normal;font-size:329.76766968px;line-height:125%;font-family:Sans;letter-spacing:0px;word-spacing:0px;fill:#082e6a;fill-opacity:1;stroke:none"
           id="text4431-4-5-9">
          <path
             d="m -2817.2542,4660.0892 q 0,28.6615 -7.5679,49.1109 -7.4069,20.2885 -21.4155,33.17 -14.0087,12.8816 -34.1362,19.0003 -19.9664,5.9577 -47.6617,5.9577 l -49.755,0 q -5.3136,0 -9.0171,-3.0593 -3.5424,-3.2204 -3.5424,-10.3053 l 0,-181.6298 q 0,-7.0849 3.5424,-10.1443 3.7035,-3.2203 9.0171,-3.2203 l 53.4585,0 q 27.8563,0 47.1786,6.6018 19.4834,6.4407 32.687,19.3223 13.3646,12.7205 20.2884,31.5598 6.9238,18.8392 6.9238,43.6362 z m -43.7972,1.4492 q 0,-14.8138 -3.5425,-27.5343 -3.3814,-12.7205 -11.1103,-22.0597 -7.5679,-9.3391 -19.6444,-14.4917 -11.9154,-5.3136 -31.3987,-5.3136 l -21.4156,0 0,141.697 22.0596,0 q 17.3901,0 29.3056,-4.5085 11.9154,-4.5086 19.8054,-13.5257 8.0509,-9.1781 11.9154,-22.7037 4.0255,-13.5256 4.0255,-31.5598 z"
             style="font-style:normal;font-variant:normal;font-weight:bold;font-stretch:normal;font-family:Calibri;-inkscape-font-specification:'Calibri Bold';fill:#082e6a;fill-opacity:1"
             id="path8110" />
          <path
             d="m -2658.8111,4750.7431 q 0,4.6696 -0.483,7.89 -0.3221,3.0593 -1.1272,4.9916 -0.8051,1.9322 -2.0932,2.8983 -1.1272,0.8051 -2.5763,0.8051 l -104.6626,0 q -5.3137,0 -9.0171,-3.0593 -3.5424,-3.2204 -3.5424,-10.3053 l 0,-181.6298 q 0,-7.0849 3.5424,-10.1443 3.7034,-3.2203 9.0171,-3.2203 l 104.0185,0 q 1.4492,0 2.5763,0.8051 1.1271,0.8051 1.9322,2.8983 0.8051,1.9322 1.1272,5.1526 0.483,3.0594 0.483,7.89 0,4.5085 -0.483,7.7289 -0.3221,3.0594 -1.1272,4.9916 -0.8051,1.9322 -1.9322,2.8984 -1.1271,0.8051 -2.5763,0.8051 l -74.391,0 0,50.8821 62.9586,0 q 1.4492,0 2.5763,0.9661 1.2882,0.8051 2.0933,2.7373 0.8051,1.7712 1.1271,4.9916 0.4831,3.0594 0.4831,7.5679 0,4.6696 -0.4831,7.729 -0.322,3.0593 -1.1271,4.9916 -0.8051,1.7712 -2.0933,2.5763 -1.1271,0.8051 -2.5763,0.8051 l -62.9586,0 0,58.772 75.0351,0 q 1.4491,0 2.5763,0.9662 1.2881,0.805 2.0932,2.7373 0.8051,1.9322 1.1272,5.1526 0.483,3.0594 0.483,7.7289 z"
             style="font-style:normal;font-variant:normal;font-weight:bold;font-stretch:normal;font-family:Calibri;-inkscape-font-specification:'Calibri Bold';fill:#082e6a;fill-opacity:1"
             id="path8112" />
        </g>
        <g
           style="font-style:normal;font-weight:normal;font-size:624.2467041px;line-height:125%;font-family:Sans;letter-spacing:0px;word-spacing:0px;fill:#082e6a;fill-opacity:1;stroke:none"
           id="text4431-5-0-6">
          <path
             d="m -4283.7152,5235.1864 q 3.6577,10.9731 4.5721,17.3741 0.9145,6.401 -2.4384,9.7538 -3.3529,3.0481 -11.8875,3.6577 -8.5347,0.9145 -23.4703,0.9145 -15.5452,0 -24.3846,-0.6097 -8.5346,-0.3048 -13.1067,-1.524 -4.5722,-1.524 -6.401,-3.9625 -1.8289,-2.4385 -3.0481,-6.401 l -26.5183,-79.25 -148.1366,0 -24.9943,77.1164 q -1.2192,4.2673 -3.3529,7.3154 -1.8288,2.7432 -6.401,4.5721 -4.2673,1.524 -12.4971,2.1336 -7.925,0.6097 -21.0317,0.6097 -14.0212,0 -21.9462,-0.9145 -7.925,-0.9144 -10.9731,-4.2673 -3.0481,-3.6577 -2.1336,-10.0586 0.9144,-6.401 4.5721,-17.0693 l 121.6184,-349.9195 q 1.8288,-5.1818 4.2673,-8.2298 2.4384,-3.3529 7.6202,-4.877 5.4865,-1.8288 14.9356,-2.1336 9.449,-0.6096 24.9942,-0.6096 17.9837,0 28.652,0.6096 10.6682,0.3048 16.4596,2.1336 6.0961,1.5241 8.5346,4.877 2.7433,3.3529 4.5721,9.1442 l 121.9232,349.6147 z m -181.0559,-289.2627 -0.3048,0 -55.7799,167.6444 111.8645,0 -55.7798,-167.6444 z"
             style="font-style:normal;font-variant:normal;font-weight:bold;font-stretch:normal;font-family:Calibri;-inkscape-font-specification:'Calibri Bold';fill:#082e6a;fill-opacity:1"
             id="path8097" />
          <path
             d="m -3963.362,5205.3153 q 0,7.6202 -0.6096,13.1067 -0.3048,5.1817 -1.2193,9.1442 -0.9144,3.6577 -2.4384,6.401 -1.5241,2.7433 -4.877,6.401 -3.3528,3.3529 -13.1067,8.8394 -9.449,5.4865 -23.4702,10.6683 -13.7164,4.8769 -31.7,8.2298 -17.6789,3.3529 -38.4058,3.3529 -40.5395,0 -73.154,-12.4971 -32.6144,-12.4972 -55.475,-37.1866 -22.8606,-24.9943 -35.0529,-62.1808 -12.1923,-37.1866 -12.1923,-86.5655 0,-50.2933 13.4115,-89.3087 13.4116,-39.0154 37.4914,-65.5337 24.0798,-26.5183 57.6087,-40.2347 33.8337,-13.7164 74.3731,-13.7164 16.4597,0 31.7001,2.7433 15.2404,2.7433 28.0423,7.3154 13.1067,4.2673 23.4702,10.0587 10.3635,5.7913 14.326,10.0586 4.2673,3.9625 5.7913,6.7058 1.5241,2.7433 2.4385,7.0106 0.9144,4.2673 1.2192,10.0587 0.6096,5.7913 0.6096,14.3259 0,9.1443 -0.6096,15.5452 -0.6096,6.401 -2.1336,10.3635 -1.5241,3.9625 -3.6577,5.7914 -2.1337,1.8288 -4.8769,1.8288 -4.5722,0 -11.5827,-5.1817 -7.0106,-5.4866 -18.2885,-11.8875 -10.9731,-6.7058 -26.5183,-11.8875 -15.2404,-5.4866 -36.577,-5.4866 -23.4702,0 -42.0635,9.7539 -18.2884,9.449 -31.3952,27.4327 -12.8019,17.6788 -19.5077,42.9779 -6.7058,25.2991 -6.7058,56.9991 0,34.7481 7.0106,60.352 7.3154,25.299 20.4221,41.7587 13.4116,16.4596 32.0049,24.6894 18.8981,7.925 42.3683,7.925 21.3365,0 36.8817,-4.8769 15.5453,-5.1818 26.5183,-11.2779 11.2779,-6.0962 18.2885,-10.9731 7.3154,-4.8769 11.2779,-4.8769 3.0481,0 4.8769,1.2192 1.8289,1.2192 3.0481,4.8769 1.2192,3.6577 1.8289,10.3635 0.6096,6.401 0.6096,17.3741 z"
             style="font-style:normal;font-variant:normal;font-weight:bold;font-stretch:normal;font-family:Calibri;-inkscape-font-specification:'Calibri Bold';fill:#082e6a;fill-opacity:1"
             id="path8099" />
          <path
             d="m -3671.9656,5233.6624 q 0,8.8394 -0.9144,14.9356 -0.6096,5.7913 -2.1337,9.449 -1.524,3.6577 -3.9625,5.4866 -2.1336,1.524 -4.8769,1.524 l -198.1252,0 q -10.0586,0 -17.0692,-5.7913 -6.7058,-6.0962 -6.7058,-19.5077 l 0,-343.8234 q 0,-13.4116 6.7058,-19.2029 7.0106,-6.0962 17.0692,-6.0962 l 196.906,0 q 2.7433,0 4.8769,1.5241 2.1337,1.524 3.6577,5.4865 1.524,3.6577 2.1337,9.7539 0.9144,5.7913 0.9144,14.9355 0,8.5347 -0.9144,14.6308 -0.6097,5.7914 -2.1337,9.4491 -1.524,3.6577 -3.6577,5.4865 -2.1336,1.5241 -4.8769,1.5241 l -140.8213,0 0,96.3193 119.1799,0 q 2.7433,0 4.8769,1.8288 2.4385,1.5241 3.9626,5.1818 1.524,3.3528 2.1336,9.449 0.9144,5.7914 0.9144,14.326 0,8.8394 -0.9144,14.6308 -0.6096,5.7913 -2.1336,9.449 -1.5241,3.3529 -3.9626,4.8769 -2.1336,1.5241 -4.8769,1.5241 l -119.1799,0 0,111.2549 142.0405,0 q 2.7433,0 4.8769,1.8288 2.4385,1.5241 3.9625,5.1818 1.5241,3.6577 2.1337,9.7538 0.9144,5.7914 0.9144,14.6308 z"
             style="font-style:normal;font-variant:normal;font-weight:bold;font-stretch:normal;font-family:Calibri;-inkscape-font-specification:'Calibri Bold';fill:#082e6a;fill-opacity:1"
             id="path8101" />
          <path
             d="m -3373.2538,5146.7921 q 0,31.0904 -11.5827,54.5607 -11.5827,23.4702 -31.3952,39.3202 -19.8125,15.5452 -46.3308,23.4702 -26.5183,7.925 -56.6943,7.925 -20.4221,0 -38.101,-3.3529 -17.374,-3.3529 -30.7856,-7.925 -13.4115,-4.8769 -22.5558,-10.0587 -8.8394,-5.1817 -12.8019,-9.1442 -3.9625,-3.9625 -5.7914,-11.2779 -1.524,-7.6202 -1.524,-21.6414 0,-9.449 0.6096,-15.85 0.6096,-6.4009 1.8289,-10.3634 1.524,-3.9625 3.6577,-5.4866 2.4384,-1.8288 5.4865,-1.8288 4.2673,0 11.8875,5.1817 7.925,4.8769 20.1173,10.9731 12.1923,6.0961 28.9568,11.2779 17.0692,4.8769 39.3202,4.8769 14.6308,0 26.2135,-3.3529 11.5827,-3.6577 19.5077,-10.0586 8.2298,-6.401 12.4971,-15.8501 4.2673,-9.449 4.2673,-21.0317 0,-13.4116 -7.3153,-22.8606 -7.3154,-9.7539 -19.2029,-17.0692 -11.5827,-7.6202 -26.5183,-14.0212 -14.9356,-6.7058 -30.7856,-14.0212 -15.8501,-7.3154 -30.7856,-16.4596 -14.9356,-9.4491 -26.8231,-22.251 -11.5828,-13.1067 -18.8981,-30.7856 -7.3154,-17.6789 -7.3154,-42.3683 0,-28.3471 10.3634,-49.6837 10.6683,-21.6414 28.3472,-35.6625 17.9836,-14.326 42.0635,-21.3366 24.3846,-7.0106 51.5125,-7.0106 14.0212,0 28.0424,2.1337 14.0211,2.1336 26.2134,5.7913 12.1924,3.6577 21.6414,8.2299 9.4491,4.5721 12.4971,7.6202 3.0481,3.048 3.9625,5.1817 1.2193,2.1336 1.8289,5.7913 0.9144,3.3529 1.2192,8.8395 0.3048,5.1817 0.3048,13.1067 0,8.8394 -0.6096,14.9356 -0.3048,6.0962 -1.524,10.0587 -0.9145,3.9625 -3.0481,5.7913 -1.8289,1.8289 -5.1817,1.8289 -3.3529,0 -10.6683,-4.2673 -7.3154,-4.2674 -17.9837,-9.1443 -10.6683,-5.1817 -24.6894,-9.1442 -14.0212,-4.2673 -30.7856,-4.2673 -13.1068,0 -22.8606,3.3529 -9.7539,3.048 -16.4597,8.8394 -6.4009,5.4865 -9.7538,13.4115 -3.0481,7.925 -3.0481,16.7645 0,13.1067 7.0106,22.8606 7.3154,9.449 19.2029,17.0692 12.1923,7.3154 27.4327,14.0212 15.2404,6.4009 31.0904,13.7163 15.85,7.3154 31.0904,16.7645 15.2404,9.1442 27.1279,22.251 11.8875,12.8019 19.2029,30.4808 7.3154,17.374 7.3154,41.149 z"
             style="font-style:normal;font-variant:normal;font-weight:bold;font-stretch:normal;font-family:Calibri;-inkscape-font-specification:'Calibri Bold';fill:#082e6a;fill-opacity:1"
             id="path8103" />
          <path
             d="m -3078.1997,5146.7921 q 0,31.0904 -11.5827,54.5607 -11.5827,23.4702 -31.3952,39.3202 -19.8125,15.5452 -46.3308,23.4702 -26.5183,7.925 -56.6943,7.925 -20.4222,0 -38.101,-3.3529 -17.3741,-3.3529 -30.7856,-7.925 -13.4116,-4.8769 -22.5558,-10.0587 -8.8394,-5.1817 -12.8019,-9.1442 -3.9625,-3.9625 -5.7914,-11.2779 -1.524,-7.6202 -1.524,-21.6414 0,-9.449 0.6096,-15.85 0.6096,-6.4009 1.8288,-10.3634 1.5241,-3.9625 3.6577,-5.4866 2.4385,-1.8288 5.4866,-1.8288 4.2673,0 11.8875,5.1817 7.925,4.8769 20.1173,10.9731 12.1923,6.0961 28.9568,11.2779 17.0692,4.8769 39.3202,4.8769 14.6308,0 26.2135,-3.3529 11.5827,-3.6577 19.5077,-10.0586 8.2298,-6.401 12.4971,-15.8501 4.2673,-9.449 4.2673,-21.0317 0,-13.4116 -7.3154,-22.8606 -7.3154,-9.7539 -19.2029,-17.0692 -11.5827,-7.6202 -26.5183,-14.0212 -14.9356,-6.7058 -30.7856,-14.0212 -15.85,-7.3154 -30.7856,-16.4596 -14.9356,-9.4491 -26.8231,-22.251 -11.5827,-13.1067 -18.8981,-30.7856 -7.3154,-17.6789 -7.3154,-42.3683 0,-28.3471 10.3635,-49.6837 10.6683,-21.6414 28.3472,-35.6625 17.9836,-14.326 42.0635,-21.3366 24.3846,-7.0106 51.5125,-7.0106 14.0212,0 28.0423,2.1337 14.0212,2.1336 26.2135,5.7913 12.1923,3.6577 21.6414,8.2299 9.449,4.5721 12.4971,7.6202 3.0481,3.048 3.9625,5.1817 1.2192,2.1336 1.8289,5.7913 0.9144,3.3529 1.2192,8.8395 0.3048,5.1817 0.3048,13.1067 0,8.8394 -0.6096,14.9356 -0.3048,6.0962 -1.5241,10.0587 -0.9144,3.9625 -3.048,5.7913 -1.8289,1.8289 -5.1818,1.8289 -3.3529,0 -10.6682,-4.2673 -7.3154,-4.2674 -17.9837,-9.1443 -10.6683,-5.1817 -24.6895,-9.1442 -14.0211,-4.2673 -30.7856,-4.2673 -13.1067,0 -22.8606,3.3529 -9.7538,3.048 -16.4596,8.8394 -6.401,5.4865 -9.7539,13.4115 -3.048,7.925 -3.048,16.7645 0,13.1067 7.0106,22.8606 7.3153,9.449 19.2029,17.0692 12.1923,7.3154 27.4327,14.0212 15.2404,6.4009 31.0904,13.7163 15.85,7.3154 31.0904,16.7645 15.2404,9.1442 27.1279,22.251 11.8875,12.8019 19.2029,30.4808 7.3154,17.374 7.3154,41.149 z"
             style="font-style:normal;font-variant:normal;font-weight:bold;font-stretch:normal;font-family:Calibri;-inkscape-font-specification:'Calibri Bold';fill:#082e6a;fill-opacity:1"
             id="path8105" />
          <path
             d="m -2662.1369,5063.2747 q 0,49.0741 -12.1923,87.7847 -12.1923,38.7107 -36.2721,65.8386 -24.0799,26.8231 -59.7424,41.149 -35.3577,14.0212 -81.9933,14.0212 -46.026,0 -80.4693,-11.8875 -34.1385,-12.1923 -56.9991,-36.8818 -22.8606,-24.6894 -34.4433,-62.7904 -11.2779,-38.101 -11.2779,-90.2232 0,-47.8548 12.1923,-85.9558 12.1923,-38.4058 36.2721,-65.2289 24.0799,-26.8231 59.4376,-41.1491 35.6625,-14.326 82.603,-14.326 44.8067,0 78.9452,11.8875 34.4433,11.8876 57.3039,36.577 23.1654,24.6894 34.7481,62.4856 11.8875,37.4914 11.8875,88.6991 z m -84.127,4.2674 q 0,-31.0905 -4.8769,-56.3895 -4.8769,-25.6039 -16.7644,-43.5876 -11.5827,-18.2884 -31.0904,-28.0423 -19.5077,-10.0586 -48.7693,-10.0586 -29.5664,0 -49.3789,11.2778 -19.8125,10.9731 -32.0048,29.5664 -12.1924,18.5933 -17.3741,43.5876 -4.8769,24.6894 -4.8769,52.4269 0,32.3097 4.8769,58.2183 4.8769,25.6039 16.4596,43.8924 11.5827,18.2885 31.0904,28.0423 19.5078,9.4491 49.0741,9.4491 29.5664,0 49.3789,-10.9731 19.8125,-10.9731 32.0049,-29.8712 12.1923,-18.8981 17.0692,-43.8923 5.1817,-25.2991 5.1817,-53.6462 z"
             style="font-style:normal;font-variant:normal;font-weight:bold;font-stretch:normal;font-family:Calibri;-inkscape-font-specification:'Calibri Bold';fill:#082e6a;fill-opacity:1"
             id="path8107" />
        </g>
      </g>
    </g>
  </g>
</svg>
